# xmcd
#
# Track frame offsets: 
#        150
#        40650
#        60975
#        71700
#        87825
#        147075
#        175050
#        189450
#        207525
#        220350
#
# Disc length: 3714 seconds
#
# Revision: 0
# Processed by: cddbd v1.5.2PL0 Copyright (c) Steve Scherf et al.
# Submitted via: ExactAudioCopy v1.0b1
#
DISCID=8f0e800a
DTITLE=Johannew Wildner, Polish State Philharmonic - Johann Strauss Jr
DTITLE=edition - v. 09
DYEAR=1989
DGENRE=Classical
TTITLE0=Carnevalsbilder, waltz     Op. 357 
TTITLE1=Annen-Polka, orchestra     Op. 117 
TTITLE2=Indigo-Marsch, orchestra     Op. 349 
TTITLE3=Albion-Polka, orchestra     Op. 102
TTITLE4=Gedanken auf den Alpen, waltz     Op. 172
TTITLE5=Festival-Quadrille nach englischen Motiven, orchestra     Op. 
TTITLE5=341
TTITLE6=Habsburg Hoch! Marsch, orchestra     Op. 408
TTITLE7=Nachtveilchen, Polka-Mazur, orchestra     Op. 170
TTITLE8=Lucifer-Polka, orchestra     Op. 266
TTITLE9=Kaiserwalzer, orchestra     Op. 437
EXTD=
EXTT0=
EXTT1=
EXTT2=
EXTT3=
EXTT4=
EXTT5=
EXTT6=
EXTT7=
EXTT8=
EXTT9=
PLAYORDER=
